<?xml version="1.0" encoding="utf-8"?>
<!-- Generator: Adobe Illustrator 21.1.0, SVG Export Plug-In . SVG Version: 6.00 Build 0)  -->
<svg version="1.1" id="Layer_1" xmlns="http://www.w3.org/2000/svg" xmlns:xlink="http://www.w3.org/1999/xlink" width="255.2" height="135.5"
	 viewBox="0 0 255.2 135.5" enable-background="new 0 0 255.2 135.5" xml:space="preserve">
<g>
	<g>
		<path fill-rule="evenodd" clip-rule="evenodd" fill="#FEFEFE" d="M126.9,41.6l0.3-0.3c1.5-1.6,3.7-2.5,5.9-2.5
			c1.1,0,2,0.1,2.9,0.4c0.8,0.3,1.6,0.6,2.6,1.1c1.6,0.7,3.4,1.5,6.7,1.5c1.1,0,3.7-0.2,4.9-1.2l0.6-0.5v23.2l-0.1,0.1
			c-1.1,1.4-4.2,1.7-5.4,1.7c-3.2,0-5.2-0.8-6.8-1.6c-2-0.9-3.3-1.5-5.4-1.5c-2.8,0-4.7,0.6-5.6,1.3l-0.6,0.4V41.6z M126.7,63.7
			l-0.6-0.4c-0.9-0.6-2.8-1.3-5.6-1.3c-2.2,0-3.4,0.6-5.4,1.5c-1.6,0.7-3.5,1.6-6.8,1.6c-1.2,0-4.3-0.3-5.4-1.7l-0.1-0.1V40l0.6,0.5
			c1.2,0.9,3.9,1.2,4.9,1.2c3.2,0,5.1-0.7,6.7-1.5c1-0.4,1.8-0.8,2.6-1.1c0.9-0.3,1.7-0.4,2.9-0.4c2.2,0,4.4,0.9,5.9,2.5l0.3,0.3
			V63.7z"/>
		<polygon fill-rule="evenodd" clip-rule="evenodd" fill="#04518C" points="161.1,33.8 149.6,34.4 149.3,33.3 161.9,22.8 
			146.6,27.7 161.5,6 142.7,23.1 142,22.7 148.4,5.6 136.4,20.6 137.2,5.3 130.7,17.9 130,17.8 126.8,5.7 123.5,17.8 122.8,17.9 
			116.3,5.3 117.1,20.6 105.1,5.6 111.4,22.8 110.8,23.2 92.1,6.1 106.9,27.7 91.6,22.8 104.3,33.3 103.9,34.4 92.5,33.8 
			102.8,40.1 102.8,41.5 89,41.5 89,2.5 164.5,2.5 164.5,41.5 150.7,41.5 150.7,40 		"/>
		<path fill-rule="evenodd" clip-rule="evenodd" fill="#FCAE14" d="M130.7,17.9L137.3,5l-0.8,14.6c0.2,0.1,0.4,0.2,0.6,0.3
			l11.3-14.2L141.9,23c0.2,0.2,0.4,0.3,0.6,0.5l18.8-17.3l-14.7,21.6l15-4.7l-12.3,10.3c0.1,0.4,0.2,0.7,0.4,1.1l11.4-0.6l-10.5,6.3
			l-0.1,0c-1.1,1.4-4.2,1.5-5.3,1.5c-3.2,0-5.1-0.7-6.7-1.5c-2-0.9-3.3-1.5-5.4-1.5c-3.2,0-5.3,1.9-6,2.7l-0.3,0.3l-0.3-0.3
			c-0.7-0.8-2.8-2.7-6-2.7c-2.2,0-3.4,0.6-5.4,1.5c-1.6,0.7-3.4,1.5-6.7,1.5c-1.1,0-4.2-0.2-5.3-1.5l-0.1,0l-10.5-6.3l11.4,0.6
			c0.1-0.4,0.2-0.7,0.4-1.1L92,23l15,4.7L92.2,6.2L111,23.4c0.2-0.2,0.4-0.3,0.6-0.5l-6.4-17.3l11.3,14.2c0.2-0.1,0.4-0.2,0.6-0.3
			L116.2,5l6.5,12.9c0.2,0,0.5-0.1,0.7-0.1l3.3-11.8l3.3,11.8C130.3,17.9,130.5,17.9,130.7,17.9 M157,41.3v27.4l-27.3,0.1
			c-0.2,1.4-1.4,2.5-2.9,2.5c-1.5,0-2.7-1.1-2.9-2.6H96.6V41.3h6.3v22.1c0.4,0.5,1.3,1,2.5,1.2c1.2,0.3,2.4,0.3,3,0.3
			c3.2,0,5-0.7,6.7-1.5c1-0.4,1.8-0.8,2.6-1.1c0.9-0.3,1.7-0.4,2.9-0.4c3.7,0,5.6,1.3,6.3,1.9c0.7-0.6,2.7-1.9,6.3-1.9
			c1.1,0,2,0.1,2.9,0.4c0.8,0.3,1.6,0.6,2.6,1.1c1.6,0.7,3.4,1.5,6.7,1.5c0.6,0,1.8-0.1,3-0.3c1.2-0.3,2.1-0.7,2.5-1.2V41.3H157z"/>
		<path fill-rule="evenodd" clip-rule="evenodd" d="M116.5,44.4c0,0.4,0,0.8,0,1.3l0.1,1.3c-0.2-0.7-0.4-1.3-0.6-1.8l-0.7-1.6h-0.9
			V48h0.8v-0.8c0-0.4,0-0.8,0-1.3c0-0.5-0.1-0.9-0.1-1.3c0.2,0.7,0.4,1.2,0.6,1.8l0.7,1.6h0.9v-4.5h-0.8V44.4z M118.2,58.3
			c0-0.4-0.1-1.1,0.6-1.1c0.6,0,0.6,0.8,0.6,1.1v1.1c0,0.4,0,1-0.6,1c-0.6,0-0.6-0.6-0.6-1V58.3z M117.3,59.1c0,1.2,0.1,2.1,1.5,2.1
			c1.4,0,1.5-0.9,1.5-2.1v-0.6c0-1.1-0.1-2-1.5-2c-1.3,0-1.4,0.9-1.5,2L117.3,59.1z M110.1,57.7h1v3.8h0.8v-3.8h1V57h-2.8V57.7z
			 M147.2,57.7c0,0.4,0,0.8,0,1.3c0,0.4,0.1,0.9,0.1,1.3c-0.2-0.7-0.4-1.3-0.6-1.8l-0.6-1.6h-0.9v4.5h0.8v-0.8c0-0.4,0-0.8,0-1.3
			c0-0.4-0.1-0.9-0.1-1.3c0.2,0.7,0.4,1.2,0.6,1.8l0.6,1.6h0.9v-4.5h-0.8V57.7z M135,58.8c0,0.4,0,0.9-0.6,0.9
			c-0.6,0-0.6-0.4-0.6-0.9v-3H133v3.1c0,1,0.3,1.5,1.4,1.5c1.1,0,1.4-0.5,1.4-1.5v-3.1H135V58.8z M115.5,59.9c0,0.4,0,0.9-0.6,0.9
			c-0.6,0-0.6-0.4-0.6-0.9v-3.1h-0.8v3.1c0,1,0.3,1.5,1.4,1.5c1.1,0,1.4-0.5,1.4-1.5v-3.1h-0.8V59.9z M148.4,51.8
			c0-0.4,0-1.5-1.3-1.5c-0.9,0-1.3,0.4-1.3,1.2c0,0.2,0.1,0.5,0.2,0.7c0.3,0.4,0.9,0.7,1.3,1c0.2,0.1,0.3,0.3,0.3,0.6
			c0,0.3-0.2,0.5-0.5,0.5c-0.4,0-0.5-0.3-0.5-0.8v-0.3h-0.8v0.3c0,0.8,0.4,1.4,1.4,1.4c0.8,0,1.4-0.4,1.4-1.3c0-0.4-0.1-0.7-0.4-0.9
			c-0.2-0.2-0.7-0.6-1-0.7c-0.3-0.2-0.5-0.3-0.5-0.6c0-0.3,0.2-0.4,0.5-0.4c0.5,0,0.5,0.4,0.5,0.8H148.4z M143.9,52.6
			c0,0.4,0,0.9-0.6,0.9c-0.6,0-0.6-0.4-0.6-0.9v-3.1h-0.8v3.1c0,1,0.3,1.5,1.4,1.5c1.1,0,1.4-0.5,1.4-1.5v-3.1h-0.8V52.6z
			 M131.7,53.1c0.6,0,0.9-0.2,1.1-0.8c0-0.2,0.1-0.4,0.1-0.5c0-0.6-0.2-1-0.6-1c0.5-0.2,0.5-0.6,0.5-0.9c0-0.3,0-0.6-0.2-0.8
			c-0.2-0.3-0.6-0.3-0.9-0.3h-1.4v4.5H131.7z M131.1,50.5v-1.2h0.4c0.4,0,0.5,0.2,0.5,0.5c0,0.2,0,0.4-0.1,0.5
			c-0.1,0.2-0.4,0.1-0.6,0.1H131.1z M131.1,52.5v-1.4h0.3c0.5,0,0.6,0.2,0.6,0.7c0,0.2,0,0.5-0.3,0.6c-0.1,0.1-0.3,0-0.5,0H131.1z
			 M134.3,44.3c0,0.2-0.1,0.5-0.1,0.8c0,0.1,0,0.2,0,0.4l0-0.4c0-0.3-0.1-0.5-0.1-0.8l-0.5-2.9h-0.9l1,4.5h1.1l1-4.5h-0.9
			L134.3,44.3z M140.4,46.8c0.2,0,0.4,0,0.6-0.1c0.7-0.4,0.7-1.4,0.7-2.3c0-0.7-0.1-1.2-0.2-1.5c-0.3-0.4-0.7-0.5-0.9-0.5h-1.7v4.5
			H140.4z M139.7,46.1v-3.2h0.5c0.5,0,0.6,0.4,0.6,1.5c0,1.3,0,1.7-0.8,1.7H139.7z M137.4,41.8h-0.8v4.5h0.8V41.8z M144.4,60.5v-0.7
			h-1.5v-1.4h1.4v-0.7h-1.4v-1.1h1.5v-0.7H142v4.5H144.4z M132.4,59.8v-0.7h-1.6v-3.8H130v4.5H132.4z M134.9,48.5h-0.8V53h0.8V48.5z
			 M145.4,47.5v-0.7h-1.5v-1.4h1.4v-0.7h-1.4v-1.1h1.5V43H143v4.5H145.4z M125.3,54.5v-0.7h-1.5v-1.4h1.4v-0.7h-1.4v-1.1h1.5V50H123
			v4.5H125.3z M121.1,50.7c0,0.4,0,0.8,0,1.3c0,0.4,0.1,0.9,0.1,1.3c-0.2-0.7-0.4-1.3-0.6-1.8l-0.6-1.6h-0.9v4.5h0.8v-0.8
			c0-0.4,0-0.8,0-1.3c0-0.5-0.1-0.9-0.1-1.3c0.2,0.7,0.4,1.2,0.6,1.8l0.6,1.6h0.9v-4.5h-0.8V50.7z M117.8,49.8H117v4.5h0.8V49.8z
			 M110,54c0,0.4,0,0.9-0.6,0.9c-0.6,0-0.6-0.4-0.6-0.9v-3.1H108V54c0,1,0.3,1.5,1.4,1.5c1.1,0,1.4-0.5,1.4-1.5v-3.1H110V54z
			 M107.4,55.5v-0.7h-1.6V51H105v4.5H107.4z M113.4,44.1h-0.8v4.5h0.8V44.1z M137.4,51.7c0-0.9,0-1.8-0.1-2.7l0.9,4.1h0.5l0.9-4.1
			c0,0.9-0.1,1.8-0.1,2.7v1.4h0.8v-4.5h-1.3l-0.4,2.1c-0.1,0.3-0.1,0.6-0.1,1c0-0.3-0.1-0.7-0.2-1l-0.4-2.1h-1.3v4.5h0.8V51.7z
			 M137.6,58.5c0-0.9,0-1.8-0.1-2.7l0.9,4.1h0.5l0.9-4.1c0,0.9-0.1,1.8-0.1,2.7v1.4h0.8v-4.5h-1.3l-0.4,2.1c-0.1,0.3-0.1,0.6-0.1,1
			c0-0.3-0.1-0.7-0.2-1l-0.4-2.1h-1.3v4.5h0.8V58.5z M113,53.3c0-0.9,0-1.8-0.1-2.7l0.9,4.1h0.5l0.9-4.1c0,0.9-0.1,1.8-0.1,2.7v1.4
			h0.8v-4.5h-1.3l-0.4,2.1c-0.1,0.3-0.1,0.6-0.1,1c0-0.3-0.1-0.7-0.2-1l-0.4-2.1h-1.3v4.5h0.8V53.3z M124.7,66.9l-24.8,0l-1.6-0.5
			V42.7l0.6-0.2v23.6l1-0.7l0-23.2l1.1-0.4v22.9c0,0,3.7,1.2,7.5,1.2c3.5,0,5.4-0.7,7.1-1.5c0.9-0.4,2.8-1.4,4.9-1.4
			c3.7,0,6.3,2,6.3,2s2.6-2,6.3-2c2.1,0,4,0.9,4.9,1.4c1.7,0.8,3.7,1.5,7.1,1.5c3.8,0,7.5-1.2,7.5-1.2V41.9l1.1,0.4l0,23.2l1,0.7
			V42.5l0.6,0.2v23.7l-1.6,0.5l-24.8,0c-0.5-0.7-1.2-1.1-2.1-1.1C125.9,65.8,125.1,66.2,124.7,66.9 M164.9,2.1v49.1
			c0,20.5-16.6,37-37,37h-2.2c-20.5,0-37-16.6-37-37V2.1H164.9z M103.4,34.8l-9.3-0.5l8.5,5.1C102.7,37.8,103,36.3,103.4,34.8
			 M106.5,28l-12.7-4l10.3,8.7C104.7,31,105.5,29.4,106.5,28 M110.4,23.4L94.5,8.8l12.5,18.4C108,25.8,109.2,24.6,110.4,23.4
			 M115.9,19.7l-9.5-11.9l5.4,14.4C113.1,21.3,114.4,20.5,115.9,19.7 M122.2,17.6l-5.4-10.7l0.7,12.1C119,18.4,120.5,18,122.2,17.6
			 M129.5,17.4l-2.7-9.8l-2.8,9.8c0.9-0.1,1.8-0.2,2.7-0.2C127.7,17.2,128.6,17.3,129.5,17.4 M151,39.4l8.5-5.1l-9.3,0.5
			C150.6,36.3,150.8,37.8,151,39.4 M149.4,32.6l10.3-8.7l-12.7,4C148,29.4,148.8,31,149.4,32.6 M146.5,27.2L159,8.8l-15.9,14.6
			C144.3,24.6,145.5,25.8,146.5,27.2 M141.7,22.3l5.4-14.4l-9.5,11.9C139.1,20.5,140.5,21.3,141.7,22.3 M136.1,19l0.7-12.1
			l-5.4,10.7C133,18,134.6,18.4,136.1,19 M126.8,41.1c0.8-0.8,2.9-2.8,6.3-2.8c2.3,0,3.6,0.6,5.6,1.5c1.6,0.7,3.3,1.4,6.5,1.4
			c1.2,0,4-0.2,5-1.4C149.5,27.7,139.3,18,126.8,18c-12.5,0-22.8,9.7-23.4,21.9c1,1.2,3.8,1.4,5,1.4c3.2,0,4.9-0.7,6.5-1.4
			c2-0.9,3.3-1.5,5.6-1.5C123.8,38.3,126,40.3,126.8,41.1 M127.3,62.9c1-0.7,3-1.4,5.8-1.4c2.3,0,3.6,0.6,5.6,1.5
			c1.6,0.7,3.4,1.5,6.6,1.5c1.2,0,4.2-0.3,5.1-1.5V40.8c-1.3,1-4.1,1.2-5.2,1.2c-3.3,0-5.2-0.8-6.8-1.5c-1.9-0.9-3.1-1.4-5.3-1.4
			c-2.1,0-4.2,0.9-5.6,2.4l-0.2,0.2V62.9z M126.3,41.7l-0.2-0.2c-1.5-1.5-3.5-2.4-5.6-2.4c-2.1,0-3.4,0.6-5.3,1.4
			c-1.6,0.8-3.5,1.5-6.8,1.5c-1,0-3.9-0.2-5.2-1.2V63c0.9,1.2,3.9,1.5,5.1,1.5c3.2,0,5-0.8,6.6-1.5c2-0.9,3.3-1.5,5.6-1.5
			c2.8,0,4.8,0.6,5.8,1.4V41.7z M151.1,41.7v21.8c-0.8,1.5-4.7,1.9-5.9,1.9c-3.3,0-5.2-0.8-6.8-1.5c-1.9-0.9-3.1-1.4-5.3-1.4
			c-4.5,0-6.3,2-6.3,2s-1.8-2-6.3-2c-2.1,0-3.4,0.6-5.3,1.4c-1.6,0.8-3.5,1.5-6.8,1.5c-1.2,0-5.1-0.3-5.9-1.9V41.7H97v26.6h27.3
			c0,1.5,1.1,2.6,2.5,2.6c1.4,0,2.5-1.1,2.5-2.5l27.3-0.1V41.7H151.1z M151.1,40.3v0.8h13V2.9H89.4v38.1h13v-0.8l-11.6-6.9l12.7,0.6
			l0.2-0.5l-14-11.7l16.2,5.2L89.8,3.4l21.3,19.5l-7.2-19.5l12.8,16l-0.8-16l7.2,14.1l0.2,0l3.6-13.3l3.6,13.3l0.1,0l7.2-14.1
			l-0.9,16l12.8-16l-7.2,19.5l21.4-19.5L147.6,27l16.2-5.2l-14,11.7l0.2,0.5l12.7-0.6L151.1,40.3z"/>
		<path fill-rule="evenodd" clip-rule="evenodd" d="M241.1,102.2c0,0.4-0.1,0.8-0.3,1.1c-0.2,0.3-0.5,0.5-0.9,0.5
			c-0.4,0-0.8-0.1-1-0.3c-0.2-0.2-0.4-0.5-0.4-0.8c0-0.2,0-0.3,0-0.5c0-0.1,0.1-0.3,0.1-0.4c-0.4,0-0.8,0.2-1.3,0.5
			c-0.5,0.3-0.9,0.7-1.3,1.3v6.9c0,0.3,0.1,0.5,0.2,0.7c0.1,0.2,0.3,0.3,0.5,0.4c0.2,0.1,0.5,0.1,0.8,0.2c0.3,0,0.6,0.1,0.8,0.1v0.8
			h-6.2v-0.8c0.2,0,0.4,0,0.6,0c0.2,0,0.4,0,0.5-0.1c0.2-0.1,0.4-0.2,0.5-0.4c0.1-0.2,0.2-0.4,0.2-0.7v-7.3c0-0.2-0.1-0.5-0.2-0.7
			c-0.1-0.2-0.3-0.4-0.5-0.6c-0.2-0.1-0.3-0.2-0.5-0.2c-0.2,0-0.4-0.1-0.7-0.1l0-0.8l3.9-0.3l0.2,0.2v1.7h0.1c0.5-0.6,1-1.1,1.6-1.5
			c0.6-0.3,1.2-0.5,1.7-0.5c0.5,0,0.9,0.2,1.2,0.5C241,101.3,241.1,101.7,241.1,102.2 M226.8,106c-0.7,0.2-1.3,0.4-1.8,0.6
			c-0.5,0.2-1,0.4-1.4,0.7c-0.4,0.3-0.7,0.6-0.9,1c-0.2,0.4-0.3,0.8-0.3,1.3c0,0.7,0.2,1.1,0.5,1.5c0.3,0.3,0.8,0.5,1.3,0.5
			c0.6,0,1.1-0.1,1.5-0.4c0.4-0.3,0.8-0.6,1.1-1L226.8,106z M230.9,112.3c-0.4,0.1-0.7,0.2-1,0.3c-0.3,0.1-0.6,0.1-1,0.1
			c-0.6,0-1.1-0.1-1.5-0.4c-0.4-0.3-0.6-0.7-0.7-1.3h-0.1c-0.5,0.6-1.1,1-1.7,1.3c-0.6,0.3-1.3,0.5-2.1,0.5c-0.9,0-1.6-0.3-2.2-0.8
			c-0.6-0.5-0.9-1.3-0.9-2.1c0-0.5,0.1-0.9,0.2-1.2c0.1-0.4,0.3-0.7,0.6-1c0.2-0.2,0.5-0.4,0.8-0.6c0.3-0.2,0.6-0.3,0.9-0.4
			c0.4-0.1,1.1-0.4,2.2-0.8c1.1-0.4,1.8-0.7,2.2-0.9l0-1.2c0-0.1,0-0.3-0.1-0.6c0-0.3-0.1-0.6-0.3-0.8c-0.2-0.3-0.4-0.6-0.7-0.8
			c-0.3-0.2-0.7-0.3-1.2-0.3c-0.4,0-0.7,0.1-1,0.2c-0.3,0.1-0.5,0.3-0.7,0.4c0,0.2,0,0.4,0.1,0.7c0.1,0.3,0.1,0.6,0.1,0.9
			c0,0.3-0.1,0.5-0.4,0.8c-0.3,0.2-0.6,0.3-1,0.3c-0.4,0-0.7-0.1-0.9-0.4c-0.2-0.3-0.3-0.6-0.3-0.9c0-0.4,0.1-0.7,0.4-1.1
			c0.3-0.3,0.6-0.6,1-0.9c0.4-0.2,0.8-0.4,1.3-0.6c0.5-0.2,1-0.2,1.5-0.2c0.7,0,1.3,0,1.8,0.1c0.5,0.1,0.9,0.3,1.4,0.6
			c0.4,0.3,0.7,0.7,0.9,1.2c0.2,0.5,0.3,1.2,0.3,2c0,1.1,0,2.1,0,3c0,0.9,0,1.8,0,2.9c0,0.3,0.1,0.6,0.2,0.7
			c0.1,0.2,0.3,0.3,0.5,0.5c0.1,0.1,0.3,0.1,0.6,0.1c0.3,0,0.5,0,0.8,0V112.3z M217.7,112.5h-7v-0.8c0.2,0,0.5,0,0.8-0.1
			c0.4,0,0.6-0.1,0.7-0.1c0.2-0.1,0.4-0.2,0.5-0.4c0.1-0.2,0.2-0.4,0.2-0.8v-6h-8v5.9c0,0.3,0,0.5,0.1,0.7c0.1,0.2,0.3,0.4,0.5,0.5
			c0.1,0.1,0.4,0.1,0.7,0.2c0.3,0.1,0.6,0.1,0.8,0.1v0.8h-7v-0.8c0.2,0,0.5,0,0.8-0.1c0.4,0,0.6-0.1,0.7-0.1
			c0.2-0.1,0.4-0.2,0.5-0.4c0.1-0.2,0.2-0.4,0.2-0.8l0-12.2c0-0.3-0.1-0.5-0.2-0.7c-0.1-0.2-0.3-0.4-0.5-0.5
			c-0.2-0.1-0.5-0.2-0.8-0.3c-0.3-0.1-0.6-0.1-0.8-0.1v-0.8h7v0.8c-0.2,0-0.5,0-0.8,0.1c-0.3,0.1-0.6,0.1-0.7,0.2
			c-0.3,0.1-0.5,0.3-0.5,0.5c-0.1,0.2-0.1,0.5-0.1,0.7v5.3h8V98c0-0.3-0.1-0.5-0.2-0.7c-0.1-0.2-0.3-0.4-0.5-0.5
			c-0.2-0.1-0.5-0.2-0.8-0.3c-0.3-0.1-0.6-0.1-0.8-0.1v-0.8h7v0.8c-0.2,0-0.5,0-0.8,0.1c-0.3,0.1-0.6,0.1-0.7,0.2
			c-0.3,0.1-0.5,0.3-0.5,0.5c-0.1,0.2-0.1,0.5-0.1,0.7v12.2c0,0.3,0,0.5,0.1,0.7c0.1,0.2,0.3,0.4,0.5,0.5c0.1,0.1,0.4,0.1,0.7,0.2
			c0.3,0.1,0.6,0.1,0.8,0.1V112.5z M192.8,112c-0.5,0.2-1,0.4-1.5,0.5c-0.5,0.1-1,0.2-1.7,0.2c-1,0-1.7-0.3-2.1-0.7
			c-0.4-0.5-0.6-1.2-0.6-2.1v-8h-2.1v-1.1h2.2v-3.7h2.2v3.7h3.4v1.1h-3.4v6.6c0,0.5,0,0.9,0.1,1.2c0,0.3,0.1,0.6,0.3,0.9
			c0.1,0.2,0.3,0.4,0.6,0.5c0.3,0.1,0.6,0.2,1,0.2c0.2,0,0.5,0,0.9-0.1c0.4,0,0.7-0.1,0.8-0.1V112z M184.5,102.2
			c0,0.4-0.1,0.8-0.3,1.1c-0.2,0.3-0.5,0.5-0.9,0.5c-0.4,0-0.8-0.1-1-0.3c-0.2-0.2-0.4-0.5-0.4-0.8c0-0.2,0-0.3,0-0.5
			c0-0.1,0.1-0.3,0.1-0.4c-0.4,0-0.8,0.2-1.3,0.5c-0.5,0.3-0.9,0.7-1.3,1.3v6.9c0,0.3,0.1,0.5,0.2,0.7c0.1,0.2,0.3,0.3,0.5,0.4
			c0.2,0.1,0.5,0.1,0.8,0.2c0.3,0,0.6,0.1,0.8,0.1v0.8h-6.2v-0.8c0.2,0,0.4,0,0.6,0c0.2,0,0.4,0,0.5-0.1c0.2-0.1,0.4-0.2,0.5-0.4
			c0.1-0.2,0.2-0.4,0.2-0.7v-7.3c0-0.2-0.1-0.5-0.2-0.7c-0.1-0.2-0.3-0.4-0.5-0.6c-0.2-0.1-0.3-0.2-0.5-0.2c-0.2,0-0.4-0.1-0.7-0.1
			l0-0.8l3.9-0.3l0.2,0.2v1.7h0.1c0.5-0.6,1-1.1,1.6-1.5c0.6-0.3,1.2-0.5,1.7-0.5c0.5,0,0.9,0.2,1.2,0.5
			C184.4,101.3,184.5,101.7,184.5,102.2 M171.4,106.5c0-0.6-0.1-1.2-0.2-1.9c-0.1-0.7-0.3-1.2-0.5-1.7c-0.3-0.5-0.6-0.9-1-1.2
			c-0.4-0.3-0.9-0.4-1.5-0.4c-0.6,0-1.1,0.2-1.6,0.5c-0.4,0.3-0.8,0.7-1.1,1.2c-0.3,0.5-0.4,1-0.5,1.7c-0.1,0.6-0.2,1.2-0.2,1.8
			c0,0.8,0.1,1.5,0.2,2.1c0.1,0.6,0.3,1.2,0.6,1.7c0.3,0.5,0.6,0.9,1,1.2c0.4,0.3,0.9,0.4,1.5,0.4c1,0,1.8-0.5,2.4-1.4
			C171.1,109.5,171.4,108.2,171.4,106.5 M173.8,106.5c0,0.8-0.1,1.6-0.4,2.4c-0.3,0.8-0.6,1.5-1.1,2c-0.5,0.6-1.2,1.1-1.9,1.4
			c-0.7,0.3-1.5,0.5-2.4,0.5c-0.7,0-1.5-0.1-2.1-0.4c-0.7-0.3-1.3-0.7-1.8-1.2c-0.5-0.5-0.9-1.2-1.2-2c-0.3-0.8-0.5-1.6-0.5-2.6
			c0-1.8,0.5-3.3,1.6-4.5c1.1-1.2,2.5-1.8,4.2-1.8c1.6,0,3,0.6,4.1,1.7C173.3,103.2,173.8,104.6,173.8,106.5 M161.2,99.8h-0.9
			c-0.2-0.6-0.5-1.3-1-2c-0.5-0.7-1-1.1-1.5-1.2c-0.2,0-0.5-0.1-0.9-0.1c-0.3,0-0.7,0-1.2,0h-2.8v6.8h1.9c0.6,0,1-0.1,1.4-0.2
			c0.3-0.1,0.6-0.3,0.8-0.6c0.2-0.2,0.3-0.4,0.4-0.8c0.1-0.4,0.2-0.8,0.3-1.2h0.9v6.6h-0.9c0-0.4-0.1-0.7-0.2-1.2
			c-0.1-0.4-0.3-0.8-0.4-1c-0.2-0.3-0.5-0.5-0.9-0.6c-0.4-0.1-0.8-0.2-1.3-0.2h-1.9v5.8c0,0.3,0,0.5,0.2,0.7
			c0.1,0.2,0.3,0.4,0.6,0.5c0.1,0.1,0.4,0.1,0.8,0.2c0.4,0.1,0.7,0.1,0.9,0.1v0.8h-7.3v-0.8c0.2,0,0.6,0,1-0.1
			c0.4,0,0.7-0.1,0.8-0.1c0.2-0.1,0.4-0.3,0.5-0.5c0.1-0.2,0.2-0.4,0.2-0.7V98c0-0.3,0-0.5-0.1-0.7c-0.1-0.2-0.3-0.4-0.5-0.5
			c-0.2-0.1-0.5-0.2-0.9-0.3c-0.4-0.1-0.6-0.1-0.9-0.1v-0.8h13.3V99.8z M142.6,95.4c0,0.4-0.1,0.7-0.3,0.9c-0.2,0.2-0.5,0.4-0.9,0.4
			c-0.2,0-0.5-0.1-0.7-0.2c-0.2-0.1-0.4-0.2-0.5-0.4c-0.2-0.2-0.3-0.4-0.4-0.6c-0.1-0.2-0.3-0.4-0.3-0.5c-0.5,0-0.9,0.4-1.2,1.1
			c-0.3,0.7-0.4,1.9-0.4,3.4v1.2h3v1.1h-3v8.5c0,0.3,0.1,0.5,0.2,0.7c0.1,0.2,0.3,0.3,0.5,0.4c0.2,0.1,0.4,0.1,0.8,0.2
			c0.3,0,0.6,0.1,0.8,0.1v0.8h-6.2v-0.8c0.2,0,0.4,0,0.6,0c0.2,0,0.4,0,0.5-0.1c0.2-0.1,0.4-0.2,0.5-0.4c0.1-0.2,0.2-0.4,0.2-0.7
			v-8.6h-2.3v-1.1h2.3V100c0-1.8,0.5-3.2,1.4-4.3c0.9-1.1,2.1-1.7,3.5-1.7c0.7,0,1.2,0.1,1.6,0.4C142.4,94.7,142.6,95,142.6,95.4
			 M129.7,106.5c0-0.6-0.1-1.2-0.2-1.9c-0.1-0.7-0.3-1.2-0.5-1.7c-0.3-0.5-0.6-0.9-1-1.2c-0.4-0.3-0.9-0.4-1.5-0.4
			c-0.6,0-1.1,0.2-1.6,0.5c-0.4,0.3-0.8,0.7-1.1,1.2c-0.3,0.5-0.4,1-0.5,1.7c-0.1,0.6-0.2,1.2-0.2,1.8c0,0.8,0.1,1.5,0.2,2.1
			c0.1,0.6,0.3,1.2,0.6,1.7c0.3,0.5,0.6,0.9,1,1.2c0.4,0.3,0.9,0.4,1.5,0.4c1,0,1.8-0.5,2.4-1.4
			C129.4,109.5,129.7,108.2,129.7,106.5 M132.2,106.5c0,0.8-0.1,1.6-0.4,2.4c-0.3,0.8-0.6,1.5-1.1,2c-0.5,0.6-1.2,1.1-1.9,1.4
			c-0.7,0.3-1.5,0.5-2.4,0.5c-0.7,0-1.5-0.1-2.1-0.4c-0.7-0.3-1.3-0.7-1.8-1.2c-0.5-0.5-0.9-1.2-1.2-2c-0.3-0.8-0.5-1.6-0.5-2.6
			c0-1.8,0.5-3.3,1.6-4.5c1.1-1.2,2.5-1.8,4.2-1.8c1.6,0,3,0.6,4.1,1.7C131.6,103.2,132.2,104.6,132.2,106.5 M101.9,116.3
			c0-0.4,0.1-0.7,0.3-1c0.2-0.3,0.5-0.4,0.8-0.4c0.3,0,0.5,0,0.7,0.1c0.2,0.1,0.3,0.2,0.5,0.4c0.1,0.1,0.2,0.3,0.4,0.5
			c0.1,0.2,0.2,0.4,0.3,0.5c0.4-0.2,0.9-0.8,1.4-1.7c0.6-0.9,1-1.7,1.2-2.4c-0.8-1.9-1.4-3.6-2.1-5.1c-0.6-1.5-1.3-3-1.9-4.6
			c-0.2-0.4-0.4-0.6-0.8-0.9c-0.4-0.2-0.7-0.3-1.1-0.4v-0.8h5.4v0.8c-0.2,0-0.5,0.1-0.9,0.2c-0.3,0.1-0.5,0.2-0.5,0.3
			c0,0,0,0.1,0.1,0.2c0,0.1,0.1,0.2,0.1,0.3c0.3,0.8,0.8,1.9,1.4,3.4c0.6,1.5,1.1,2.7,1.4,3.6c0.4-0.9,0.7-1.7,1.1-2.6
			c0.4-0.9,0.8-2,1.3-3.2c0.1-0.2,0.1-0.4,0.2-0.6c0.1-0.3,0.2-0.5,0.2-0.7c0-0.2-0.2-0.4-0.5-0.6c-0.4-0.2-0.7-0.3-1-0.3v-0.8h4.4
			v0.7c-0.2,0-0.6,0.2-0.9,0.4c-0.4,0.2-0.7,0.6-0.9,1c-0.9,2.2-1.8,4.2-2.5,6c-0.7,1.8-1.3,3.1-1.7,4c-0.5,1.1-0.9,2-1.3,2.6
			c-0.4,0.6-0.8,1.1-1.2,1.5c-0.4,0.3-0.7,0.6-1,0.7c-0.3,0.1-0.6,0.2-0.9,0.2c-0.6,0-1.1-0.1-1.5-0.4
			C102,117.1,101.9,116.7,101.9,116.3 M101.6,112c-0.5,0.2-1,0.4-1.5,0.5c-0.5,0.1-1,0.2-1.7,0.2c-1,0-1.7-0.3-2.1-0.7
			c-0.4-0.5-0.6-1.2-0.6-2.1v-8h-2.1v-1.1h2.2v-3.7H98v3.7h3.4v1.1H98v6.6c0,0.5,0,0.9,0.1,1.2c0,0.3,0.1,0.6,0.3,0.9
			c0.1,0.2,0.3,0.4,0.6,0.5c0.3,0.1,0.6,0.2,1,0.2c0.2,0,0.5,0,0.9-0.1c0.4,0,0.7-0.1,0.8-0.1V112z M91.4,95.9
			c0,0.5-0.1,0.8-0.4,1.2c-0.3,0.3-0.7,0.5-1.1,0.5c-0.4,0-0.8-0.2-1.1-0.5c-0.3-0.3-0.4-0.7-0.4-1.1c0-0.4,0.2-0.8,0.4-1.1
			c0.3-0.3,0.7-0.5,1.1-0.5c0.5,0,0.8,0.2,1.1,0.5C91.2,95.2,91.4,95.5,91.4,95.9 M92.9,112.5h-5.7v-0.8c0.2,0,0.4,0,0.6,0
			c0.2,0,0.4,0,0.5-0.1c0.2-0.1,0.4-0.2,0.5-0.4c0.1-0.2,0.2-0.4,0.2-0.7v-7.3c0-0.3-0.1-0.5-0.2-0.7c-0.1-0.2-0.3-0.4-0.5-0.5
			c-0.2-0.1-0.4-0.2-0.7-0.2c-0.3-0.1-0.5-0.1-0.8-0.1v-0.8l4.2-0.3l0.2,0.2v9.6c0,0.3,0.1,0.5,0.2,0.7c0.1,0.2,0.3,0.3,0.5,0.4
			c0.2,0.1,0.3,0.1,0.5,0.2c0.2,0,0.4,0.1,0.6,0.1V112.5z M84.4,106.7c0.3,0.3,0.6,0.6,0.8,1c0.2,0.4,0.3,0.8,0.3,1.4
			c0,1.1-0.4,2-1.2,2.7c-0.8,0.7-1.9,1-3.2,1c-0.7,0-1.3-0.1-1.9-0.4c-0.6-0.2-1-0.5-1.2-0.7l-0.2,0.8h-0.9l-0.1-4.1h0.8
			c0.1,0.3,0.2,0.7,0.4,1.1c0.2,0.4,0.5,0.8,0.7,1.1c0.3,0.4,0.7,0.6,1.1,0.9c0.4,0.2,0.9,0.4,1.5,0.4c0.8,0,1.4-0.2,1.8-0.5
			c0.4-0.3,0.6-0.8,0.6-1.5c0-0.3-0.1-0.6-0.2-0.9c-0.1-0.2-0.3-0.5-0.6-0.6c-0.3-0.2-0.6-0.3-1-0.5c-0.4-0.1-0.8-0.3-1.3-0.4
			c-0.4-0.1-0.8-0.3-1.2-0.5c-0.5-0.2-0.9-0.4-1.2-0.7c-0.4-0.3-0.6-0.6-0.9-1c-0.2-0.4-0.3-0.9-0.3-1.4c0-1,0.4-1.8,1.1-2.4
			c0.7-0.7,1.7-1,2.9-1c0.5,0,0.9,0.1,1.4,0.2c0.5,0.1,0.9,0.3,1.2,0.4l0.3-0.6h0.9l0.2,3.8H84c-0.2-0.8-0.5-1.5-1.1-2.1
			c-0.5-0.5-1.2-0.8-2-0.8c-0.7,0-1.2,0.2-1.5,0.5c-0.4,0.3-0.6,0.7-0.6,1.2c0,0.4,0.1,0.7,0.2,0.9c0.1,0.2,0.3,0.4,0.6,0.6
			c0.2,0.2,0.5,0.3,0.9,0.4c0.4,0.1,0.8,0.3,1.3,0.5c0.5,0.2,1,0.4,1.5,0.6C83.7,106.2,84.1,106.5,84.4,106.7 M75.6,102.2
			c0,0.4-0.1,0.8-0.3,1.1c-0.2,0.3-0.5,0.5-0.9,0.5c-0.4,0-0.8-0.1-1-0.3c-0.2-0.2-0.4-0.5-0.4-0.8c0-0.2,0-0.3,0-0.5
			c0-0.1,0.1-0.3,0.1-0.4c-0.4,0-0.8,0.2-1.3,0.5c-0.5,0.3-0.9,0.7-1.3,1.3v6.9c0,0.3,0.1,0.5,0.2,0.7c0.1,0.2,0.3,0.3,0.5,0.4
			c0.2,0.1,0.5,0.1,0.8,0.2c0.3,0,0.6,0.1,0.8,0.1v0.8h-6.2v-0.8c0.2,0,0.4,0,0.6,0c0.2,0,0.4,0,0.5-0.1c0.2-0.1,0.4-0.2,0.5-0.4
			c0.1-0.2,0.2-0.4,0.2-0.7v-7.3c0-0.2-0.1-0.5-0.2-0.7c-0.1-0.2-0.3-0.4-0.5-0.6c-0.2-0.1-0.3-0.2-0.5-0.2s-0.4-0.1-0.7-0.1v-0.8
			l3.9-0.3l0.2,0.2v1.7h0.1c0.5-0.6,1-1.1,1.7-1.5c0.6-0.3,1.2-0.5,1.7-0.5c0.5,0,0.9,0.2,1.2,0.5C75.4,101.3,75.6,101.7,75.6,102.2
			 M62.6,105.2c0-0.4,0-0.9-0.1-1.4c-0.1-0.5-0.2-0.9-0.4-1.3c-0.2-0.4-0.4-0.7-0.8-0.9s-0.7-0.3-1.2-0.3c-0.8,0-1.5,0.3-2.1,1
			c-0.6,0.7-0.9,1.7-0.9,2.9H62.6z M65.2,109.7c-0.5,0.9-1.2,1.7-2,2.2c-0.8,0.6-1.8,0.8-2.9,0.8c-0.9,0-1.8-0.2-2.5-0.5
			c-0.7-0.3-1.3-0.8-1.8-1.4c-0.5-0.6-0.8-1.2-1-2c-0.2-0.8-0.3-1.6-0.3-2.4c0-0.8,0.1-1.5,0.4-2.2c0.2-0.7,0.6-1.4,1.1-2
			c0.5-0.6,1-1,1.7-1.4c0.7-0.3,1.4-0.5,2.3-0.5c0.9,0,1.6,0.1,2.2,0.4c0.6,0.3,1.1,0.6,1.5,1.1c0.4,0.4,0.6,1,0.8,1.6
			c0.2,0.6,0.3,1.3,0.3,2v0.8h-7.8c0,0.8,0.1,1.5,0.2,2.1c0.1,0.6,0.4,1.2,0.7,1.7c0.3,0.5,0.7,0.8,1.2,1.1c0.5,0.3,1.1,0.4,1.8,0.4
			c0.7,0,1.3-0.2,1.8-0.5c0.5-0.3,1-0.9,1.5-1.8L65.2,109.7z M54.3,101.5c-0.4,0.1-0.7,0.2-1,0.4c-0.3,0.2-0.6,0.5-0.8,1
			c-0.5,1.1-1,2.2-1.5,3.3c-0.5,1.2-1,2.4-1.6,3.6c-0.2,0.4-0.3,0.8-0.5,1.3c-0.2,0.5-0.3,1-0.5,1.4h-0.9c-0.8-1.9-1.5-3.6-2.1-5.1
			c-0.6-1.5-1.3-3.1-2-4.7c-0.2-0.4-0.4-0.6-0.8-0.9c-0.4-0.2-0.7-0.3-1.1-0.4v-0.8H47v0.8c-0.2,0-0.5,0.1-0.9,0.2
			c-0.4,0.1-0.5,0.2-0.5,0.4c0,0,0,0.1,0.1,0.2c0,0.1,0.1,0.2,0.1,0.3c0.3,0.8,0.8,1.9,1.4,3.4c0.6,1.5,1.1,2.6,1.5,3.5
			c0.3-0.7,0.6-1.5,1.1-2.6c0.4-1,0.9-2.2,1.4-3.4c0.1-0.2,0.2-0.4,0.2-0.6c0.1-0.2,0.1-0.4,0.1-0.6c0-0.1-0.1-0.3-0.2-0.4
			c-0.1-0.1-0.3-0.2-0.5-0.3c-0.2-0.1-0.4-0.1-0.5-0.2c-0.2,0-0.3-0.1-0.4-0.1v-0.8h4.5V101.5z M39.7,95.9c0,0.5-0.1,0.8-0.4,1.2
			c-0.3,0.3-0.7,0.5-1.1,0.5c-0.4,0-0.8-0.2-1.1-0.5c-0.3-0.3-0.4-0.7-0.4-1.1c0-0.4,0.2-0.8,0.4-1.1c0.3-0.3,0.7-0.5,1.1-0.5
			c0.5,0,0.8,0.2,1.1,0.5C39.5,95.2,39.7,95.5,39.7,95.9 M41.2,112.5h-5.7v-0.8c0.2,0,0.4,0,0.6,0c0.2,0,0.4,0,0.5-0.1
			c0.2-0.1,0.4-0.2,0.5-0.4c0.1-0.2,0.2-0.4,0.2-0.7v-7.3c0-0.3-0.1-0.5-0.2-0.7c-0.1-0.2-0.3-0.4-0.5-0.5c-0.2-0.1-0.4-0.2-0.7-0.2
			c-0.3-0.1-0.5-0.1-0.8-0.1v-0.8l4.2-0.3l0.2,0.2v9.6c0,0.3,0.1,0.5,0.2,0.7c0.1,0.2,0.3,0.3,0.5,0.4c0.2,0.1,0.3,0.1,0.5,0.2
			c0.2,0,0.4,0.1,0.6,0.1V112.5z M34,112.5h-5.8v-0.8c0.2,0,0.4,0,0.6,0c0.2,0,0.4,0,0.5-0.1c0.2-0.1,0.4-0.2,0.5-0.4
			c0.1-0.2,0.2-0.4,0.2-0.7v-6.1c0-0.8-0.2-1.5-0.6-1.9c-0.4-0.5-0.9-0.7-1.4-0.7c-0.4,0-0.8,0.1-1.2,0.2c-0.3,0.1-0.7,0.3-0.9,0.5
			c-0.3,0.2-0.5,0.4-0.6,0.6c-0.2,0.2-0.3,0.4-0.3,0.5v6.8c0,0.3,0.1,0.5,0.2,0.7c0.1,0.2,0.3,0.3,0.5,0.4c0.2,0.1,0.3,0.1,0.5,0.2
			c0.2,0,0.4,0.1,0.6,0.1v0.8H21v-0.8c0.2,0,0.4,0,0.6,0c0.2,0,0.4,0,0.5-0.1c0.2-0.1,0.4-0.2,0.5-0.4c0.1-0.2,0.2-0.4,0.2-0.7v-7.3
			c0-0.3-0.1-0.5-0.2-0.7c-0.1-0.2-0.3-0.4-0.5-0.6c-0.2-0.1-0.3-0.2-0.5-0.2c-0.2,0-0.4-0.1-0.7-0.1v-0.8l3.9-0.3l0.2,0.2v1.7H25
			c0.2-0.2,0.4-0.4,0.7-0.7c0.3-0.3,0.6-0.5,0.8-0.7c0.3-0.2,0.6-0.4,1.1-0.5c0.4-0.1,0.9-0.2,1.4-0.2c1.1,0,2,0.4,2.5,1.1
			c0.5,0.7,0.8,1.6,0.8,2.8v6.1c0,0.3,0,0.5,0.1,0.7c0.1,0.2,0.3,0.3,0.5,0.4c0.2,0.1,0.4,0.1,0.5,0.2c0.1,0,0.3,0.1,0.6,0.1V112.5z
			 M20,96.4c-0.2,0-0.5,0.1-1,0.1c-0.4,0.1-0.8,0.2-1.1,0.4c-0.3,0.2-0.5,0.6-0.6,1.1c-0.1,0.6-0.2,1.3-0.2,2.1v7.4
			c0,0.9-0.2,1.8-0.6,2.4c-0.4,0.7-0.9,1.3-1.5,1.7c-0.6,0.4-1.3,0.7-2,0.9c-0.7,0.2-1.4,0.3-2,0.3c-1,0-1.9-0.1-2.7-0.4
			c-0.8-0.3-1.5-0.6-2-1.1c-0.5-0.5-0.9-1-1.2-1.6c-0.3-0.6-0.4-1.2-0.4-1.8V98c0-0.3-0.1-0.5-0.1-0.7c-0.1-0.2-0.3-0.4-0.6-0.5
			c-0.2-0.1-0.5-0.2-0.8-0.3c-0.3-0.1-0.6-0.1-0.8-0.1v-0.8h7.1v0.8c-0.2,0-0.5,0-0.8,0.1c-0.3,0.1-0.6,0.1-0.7,0.2
			c-0.3,0.1-0.5,0.3-0.5,0.5c-0.1,0.2-0.1,0.5-0.1,0.7v9.4c0,0.5,0,0.9,0.1,1.4c0.1,0.5,0.3,1,0.6,1.4c0.3,0.4,0.7,0.8,1.3,1.1
			s1.3,0.4,2.2,0.4c0.9,0,1.6-0.1,2.2-0.4c0.6-0.3,1.1-0.6,1.4-1.1c0.3-0.4,0.6-0.9,0.7-1.3c0.1-0.5,0.2-0.9,0.2-1.4v-6.9
			c0-0.9-0.1-1.6-0.2-2.2c-0.1-0.6-0.3-0.9-0.6-1.1c-0.3-0.2-0.7-0.4-1.1-0.5c-0.5-0.1-0.8-0.2-1.1-0.2v-0.8H20V96.4z"/>
		<path fill-rule="evenodd" clip-rule="evenodd" d="M249.9,105.2c0-0.4,0-0.9-0.1-1.4c-0.1-0.5-0.2-0.9-0.4-1.3
			c-0.2-0.4-0.4-0.7-0.8-0.9c-0.3-0.2-0.7-0.3-1.2-0.3c-0.8,0-1.5,0.3-2.1,1c-0.6,0.7-0.9,1.7-0.9,2.9H249.9z M252.6,109.7
			c-0.5,0.9-1.2,1.7-2,2.2c-0.8,0.6-1.8,0.8-2.9,0.8c-0.9,0-1.8-0.2-2.5-0.5c-0.7-0.3-1.3-0.8-1.8-1.4c-0.5-0.6-0.8-1.2-1-2
			c-0.2-0.8-0.3-1.6-0.3-2.4c0-0.8,0.1-1.5,0.4-2.2c0.2-0.7,0.6-1.4,1.1-2c0.5-0.6,1-1,1.7-1.4c0.7-0.3,1.4-0.5,2.3-0.5
			c0.9,0,1.6,0.1,2.2,0.4c0.6,0.3,1.1,0.6,1.5,1.1c0.4,0.4,0.6,1,0.8,1.6c0.2,0.6,0.3,1.3,0.3,2v0.8h-7.8c0,0.8,0.1,1.5,0.2,2.1
			c0.1,0.6,0.4,1.2,0.7,1.7c0.3,0.5,0.7,0.8,1.2,1.1c0.5,0.3,1.1,0.4,1.8,0.4c0.7,0,1.3-0.2,1.8-0.5c0.5-0.3,1-0.9,1.5-1.8
			L252.6,109.7z"/>
	</g>
	<g>
		<path d="M68.6,120.5l-0.6,2.7l-0.5,0c0-0.2,0-0.4-0.1-0.6c0-0.2-0.1-0.5-0.2-0.7c-0.1-0.2-0.2-0.4-0.3-0.5
			c-0.1-0.2-0.3-0.2-0.5-0.3c-0.1,0-0.3,0-0.5,0c-0.2,0-0.4,0-0.6,0l-0.4,0l-1.8,8c0,0,0,0.1,0,0.1c0,0,0,0.1,0,0.1
			c0,0.1,0,0.2,0.1,0.3c0,0.1,0.1,0.1,0.2,0.2c0.1,0,0.3,0.1,0.5,0.1c0.2,0.1,0.4,0.1,0.6,0.1l-0.1,0.5l-4.7,0l0.1-0.5
			c0.1,0,0.3,0,0.6-0.1c0.3,0,0.5-0.1,0.6-0.1c0.2-0.1,0.3-0.2,0.4-0.3c0.1-0.1,0.2-0.3,0.2-0.4l1.8-8l-0.4,0c-0.1,0-0.3,0-0.5,0
			c-0.2,0-0.4,0-0.6,0.1c-0.2,0-0.3,0.1-0.5,0.3c-0.2,0.2-0.4,0.4-0.6,0.6c-0.2,0.2-0.4,0.4-0.5,0.7c-0.2,0.2-0.3,0.4-0.4,0.6
			l-0.5,0l0.6-2.7L68.6,120.5z"/>
	</g>
	<g>
		<path d="M74.5,126c0,0.5-0.1,1.1-0.3,1.6c-0.2,0.5-0.4,1-0.8,1.4c-0.4,0.4-0.8,0.8-1.3,1c-0.5,0.3-1.1,0.4-1.7,0.4
			c-0.8,0-1.4-0.2-1.9-0.7c-0.5-0.5-0.7-1.2-0.7-2c0-0.6,0.1-1.2,0.3-1.7c0.2-0.5,0.5-1,0.8-1.4c0.3-0.4,0.8-0.7,1.3-1
			c0.5-0.3,1.1-0.4,1.7-0.4c0.8,0,1.5,0.2,1.9,0.7C74.3,124.6,74.5,125.2,74.5,126z M73.1,125.8c0-0.7-0.1-1.1-0.4-1.5
			c-0.2-0.3-0.6-0.5-1-0.5c-0.4,0-0.7,0.1-1.1,0.4c-0.3,0.2-0.6,0.6-0.9,1.2c-0.2,0.4-0.3,0.9-0.4,1.3c-0.1,0.5-0.1,0.9-0.1,1.4
			c0,0.7,0.1,1.2,0.4,1.5c0.2,0.3,0.6,0.5,1,0.5c0.4,0,0.8-0.1,1.1-0.4c0.3-0.3,0.6-0.6,0.8-1c0.2-0.4,0.3-0.8,0.4-1.3
			C73,126.8,73.1,126.3,73.1,125.8z"/>
	</g>
	<g>
		<path d="M79.9,129.3L79.9,129.3c-0.1,0.1-0.3,0.2-0.4,0.3c-0.2,0.1-0.3,0.3-0.5,0.4c-0.2,0.1-0.4,0.2-0.6,0.3
			c-0.2,0.1-0.5,0.1-0.7,0.1c-0.7,0-1.2-0.2-1.6-0.7c-0.4-0.5-0.6-1.1-0.6-2c0-0.6,0.1-1.1,0.3-1.7c0.2-0.5,0.5-1,0.9-1.5
			c0.3-0.4,0.8-0.7,1.3-1c0.5-0.3,1-0.4,1.5-0.4c0.3,0,0.6,0,0.9,0.1c0.3,0.1,0.5,0.2,0.7,0.3l1.3-0.3l0.1,0.1l-1.1,5.5
			c-0.2,0.8-0.4,1.5-0.7,2.1c-0.3,0.6-0.6,1-0.9,1.4c-0.4,0.3-0.8,0.6-1.2,0.7c-0.4,0.1-1,0.2-1.5,0.2c-0.4,0-0.7,0-0.9-0.1
			c-0.2-0.1-0.4-0.1-0.6-0.2c-0.1-0.1-0.2-0.2-0.3-0.3c-0.1-0.1-0.1-0.2-0.1-0.3c0-0.2,0.1-0.4,0.2-0.5c0.1-0.1,0.3-0.2,0.5-0.2
			c0.2,0,0.3,0,0.4,0.1c0.1,0.1,0.2,0.2,0.3,0.3c0.1,0.1,0.2,0.3,0.2,0.4c0.1,0.2,0.1,0.3,0.2,0.4l0.2,0c0.3,0,0.5-0.1,0.8-0.2
			c0.3-0.1,0.6-0.3,0.8-0.6c0.2-0.3,0.5-0.6,0.7-1.1C79.6,130.6,79.8,130,79.9,129.3z M80.8,124.9c0-0.1,0-0.3-0.1-0.4
			c0-0.1-0.1-0.3-0.2-0.4c-0.1-0.1-0.2-0.2-0.4-0.3c-0.2-0.1-0.4-0.1-0.6-0.1c-0.4,0-0.7,0.1-1,0.3c-0.3,0.2-0.6,0.5-0.8,0.9
			c-0.2,0.4-0.4,0.8-0.6,1.3c-0.1,0.5-0.2,1-0.2,1.5c0,0.3,0,0.5,0.1,0.8c0,0.2,0.1,0.4,0.2,0.6c0.1,0.2,0.2,0.3,0.4,0.4
			c0.2,0.1,0.4,0.1,0.6,0.1c0.3,0,0.6-0.1,1-0.3c0.3-0.2,0.6-0.4,0.9-0.7L80.8,124.9z"/>
	</g>
	<g>
		<path d="M89.5,124.6c0,0.5-0.1,0.9-0.5,1.3c-0.3,0.4-0.8,0.6-1.3,0.9c-0.4,0.2-0.9,0.3-1.3,0.4c-0.4,0.1-0.9,0.2-1.5,0.3
			c0,0.7,0.1,1.3,0.4,1.7c0.3,0.4,0.7,0.6,1.2,0.6c0.5,0,0.9-0.1,1.2-0.4c0.4-0.2,0.7-0.6,1-1l0.4,0.3c-0.4,0.6-0.8,1-1.4,1.4
			c-0.6,0.3-1.1,0.5-1.7,0.5c-0.8,0-1.4-0.2-1.9-0.7c-0.4-0.5-0.7-1.1-0.7-1.9c0-0.6,0.1-1.1,0.3-1.7c0.2-0.5,0.4-1,0.8-1.5
			c0.3-0.4,0.8-0.8,1.3-1.1c0.5-0.3,1-0.4,1.6-0.4c0.7,0,1.2,0.1,1.5,0.4C89.4,123.9,89.5,124.2,89.5,124.6z M88.3,124.5
			c0-0.2,0-0.3-0.1-0.4c-0.1-0.1-0.1-0.2-0.2-0.2c-0.1-0.1-0.2-0.1-0.3-0.1c-0.1,0-0.2,0-0.3,0c-0.6,0-1.1,0.3-1.5,0.9
			c-0.5,0.6-0.8,1.4-0.9,2.3c0.3,0,0.7-0.1,1.1-0.2c0.4-0.1,0.7-0.2,1-0.3c0.4-0.2,0.7-0.5,0.9-0.8
			C88.2,125.3,88.3,124.9,88.3,124.5z"/>
		<path d="M92,130.3c-0.4,0-0.8-0.1-1-0.3c-0.2-0.2-0.3-0.4-0.3-0.8c0-0.1,0-0.2,0-0.3c0-0.1,0-0.2,0.1-0.3l1-4.6l-1.2,0l0.1-0.6
			l1.3,0l0.5-2l1.2,0l-0.5,2l1.9,0L95,124l-1.9,0l-0.9,3.8c0,0.2-0.1,0.3-0.1,0.5c0,0.2,0,0.3,0,0.4c0,0.3,0.1,0.4,0.2,0.6
			c0.1,0.1,0.4,0.2,0.7,0.2c0.1,0,0.3,0,0.5,0c0.2,0,0.4-0.1,0.5-0.1l-0.1,0.5c-0.3,0.1-0.6,0.2-0.9,0.3
			C92.7,130.3,92.4,130.3,92,130.3z"/>
		<path d="M102.4,129.3l-0.1,0.4c-0.4,0.2-0.7,0.3-1,0.4c-0.2,0.1-0.5,0.1-0.7,0.1c-0.4,0-0.6-0.1-0.8-0.3c-0.2-0.2-0.3-0.4-0.3-0.7
			c0-0.1,0-0.2,0-0.3c0-0.1,0-0.3,0.1-0.4l0.7-2.6c0-0.2,0.1-0.4,0.1-0.5c0-0.2,0-0.3,0-0.4c0-0.3-0.1-0.6-0.2-0.7
			c-0.1-0.2-0.4-0.3-0.7-0.3c-0.3,0-0.6,0.1-1,0.3c-0.3,0.2-0.7,0.5-1,0.8l-1.1,5.1l-1.3,0l2-9c0-0.1,0-0.2,0.1-0.3
			c0-0.1,0-0.2,0-0.2c0-0.2,0-0.3-0.1-0.4c-0.1-0.1-0.1-0.2-0.2-0.2c-0.1,0-0.2-0.1-0.4-0.1c-0.2,0-0.3,0-0.5,0l0.1-0.4l2.6-0.2
			l0.1,0.1l-1.1,4.8l0,0c0.5-0.4,0.9-0.7,1.3-0.9c0.4-0.2,0.8-0.3,1.3-0.3c0.4,0,0.8,0.1,1,0.4c0.3,0.3,0.4,0.6,0.4,1
			c0,0.1,0,0.2,0,0.4c0,0.2-0.1,0.4-0.1,0.6l-0.6,2.2c0,0.1-0.1,0.3-0.1,0.5c0,0.2-0.1,0.3-0.1,0.4c0,0.3,0.1,0.4,0.2,0.5
			c0.1,0.1,0.3,0.1,0.6,0.1c0.1,0,0.2,0,0.4,0C102.2,129.4,102.3,129.3,102.4,129.3z"/>
		<path d="M109.2,124.5c0,0.5-0.1,0.9-0.5,1.3c-0.3,0.4-0.8,0.6-1.3,0.9c-0.4,0.2-0.9,0.3-1.3,0.4c-0.4,0.1-0.9,0.2-1.5,0.3
			c0,0.7,0.1,1.3,0.4,1.7c0.3,0.4,0.7,0.6,1.2,0.6c0.5,0,0.9-0.1,1.2-0.4c0.4-0.2,0.7-0.6,1-1l0.4,0.3c-0.4,0.6-0.8,1-1.4,1.4
			c-0.6,0.3-1.1,0.5-1.7,0.5c-0.8,0-1.4-0.2-1.9-0.7c-0.4-0.5-0.7-1.1-0.7-1.9c0-0.6,0.1-1.1,0.3-1.7c0.2-0.5,0.4-1,0.8-1.5
			c0.3-0.4,0.8-0.8,1.3-1c0.5-0.3,1-0.4,1.6-0.4c0.7,0,1.2,0.1,1.5,0.4C109,123.7,109.2,124.1,109.2,124.5z M107.9,124.3
			c0-0.2,0-0.3-0.1-0.4c-0.1-0.1-0.1-0.2-0.2-0.2c-0.1-0.1-0.2-0.1-0.3-0.1c-0.1,0-0.2,0-0.3,0c-0.6,0-1.1,0.3-1.5,0.9
			c-0.5,0.6-0.8,1.4-0.9,2.3c0.3,0,0.7-0.1,1.1-0.2c0.4-0.1,0.7-0.2,1-0.3c0.4-0.2,0.7-0.5,0.9-0.8
			C107.8,125.1,107.9,124.7,107.9,124.3z"/>
		<path d="M116.1,124.1c0,0.1,0,0.3-0.1,0.4c0,0.2-0.1,0.3-0.2,0.4c-0.1,0.1-0.2,0.2-0.3,0.3c-0.1,0.1-0.2,0.1-0.4,0.1
			c-0.2,0-0.4-0.1-0.6-0.2c-0.1-0.1-0.2-0.3-0.2-0.4c0-0.1,0-0.3,0.1-0.5c0.1-0.2,0.1-0.4,0.2-0.5c-0.1,0-0.1,0-0.3,0
			c-0.1,0-0.3,0.1-0.5,0.2c-0.2,0.1-0.4,0.2-0.6,0.4c-0.2,0.2-0.5,0.4-0.7,0.7l-1.1,5l-1.3,0l1-4.5c0-0.1,0.1-0.3,0.1-0.5
			c0-0.2,0.1-0.4,0.1-0.5c0-0.3,0-0.4-0.1-0.5c-0.1-0.1-0.3-0.1-0.5-0.1c-0.1,0-0.2,0-0.4,0.1c-0.2,0-0.3,0.1-0.4,0.1l0.1-0.4
			c0.4-0.2,0.7-0.3,1-0.4c0.3-0.1,0.5-0.1,0.7-0.1c0.4,0,0.6,0.1,0.8,0.3c0.2,0.2,0.2,0.5,0.2,0.9h0c0.5-0.5,1-0.8,1.2-1
			c0.3-0.2,0.6-0.3,0.9-0.3c0.1,0,0.3,0,0.4,0.1c0.1,0,0.3,0.1,0.4,0.2c0.1,0.1,0.2,0.2,0.2,0.3C116,123.7,116.1,123.9,116.1,124.1z
			"/>
	</g>
	<g>
		<path d="M123.3,129.2l-0.1,0.4c-0.4,0.2-0.8,0.3-1,0.4c-0.3,0.1-0.5,0.1-0.7,0.1c-0.4,0-0.6-0.1-0.8-0.3c-0.2-0.2-0.3-0.4-0.3-0.7
			c0-0.1,0-0.2,0-0.3c0-0.1,0-0.3,0.1-0.4l0.7-3c0-0.2,0.1-0.3,0.1-0.5c0-0.2,0-0.3,0-0.5c0-0.3,0-0.4-0.1-0.5
			c-0.1-0.1-0.3-0.1-0.5-0.1c-0.1,0-0.2,0-0.4,0.1c-0.2,0-0.3,0.1-0.4,0.1l0.1-0.4c0.4-0.2,0.7-0.3,1-0.4c0.3-0.1,0.5-0.1,0.7-0.1
			c0.4,0,0.7,0.1,0.8,0.3c0.2,0.2,0.3,0.4,0.3,0.7c0,0.1,0,0.2,0,0.3c0,0.1,0,0.3-0.1,0.4l-0.7,3c0,0.2-0.1,0.4-0.1,0.5
			c0,0.2,0,0.3,0,0.4c0,0.3,0.1,0.4,0.2,0.5c0.1,0.1,0.3,0.1,0.6,0.1c0.1,0,0.2,0,0.4,0C123.1,129.3,123.2,129.2,123.3,129.2z
			 M123.7,120.3c0,0.3-0.1,0.5-0.3,0.7c-0.2,0.2-0.4,0.3-0.6,0.3c-0.2,0-0.4-0.1-0.6-0.3c-0.2-0.2-0.3-0.4-0.3-0.6
			c0-0.3,0.1-0.5,0.3-0.7s0.4-0.3,0.6-0.3c0.3,0,0.5,0.1,0.6,0.3C123.6,119.9,123.7,120.1,123.7,120.3z"/>
		<path d="M131.7,129.1l-0.1,0.4c-0.4,0.2-0.7,0.3-1,0.4c-0.2,0.1-0.5,0.1-0.7,0.1c-0.4,0-0.7-0.1-0.8-0.3c-0.2-0.2-0.3-0.4-0.3-0.7
			c0-0.1,0-0.2,0-0.3c0-0.1,0-0.3,0.1-0.4l0.7-2.6c0.1-0.2,0.1-0.4,0.1-0.5c0-0.2,0-0.3,0-0.4c0-0.3-0.1-0.6-0.2-0.7
			c-0.1-0.2-0.4-0.3-0.7-0.3c-0.3,0-0.6,0.1-0.9,0.3c-0.3,0.2-0.7,0.5-1,0.8l-1.1,5.1l-1.3,0l1-4.5c0-0.1,0.1-0.3,0.1-0.5
			c0-0.2,0.1-0.4,0.1-0.5c0-0.3,0-0.4-0.1-0.5c-0.1-0.1-0.3-0.1-0.5-0.1c-0.1,0-0.2,0-0.4,0.1s-0.3,0.1-0.4,0.1l0.1-0.4
			c0.4-0.2,0.7-0.3,1-0.4c0.3-0.1,0.5-0.1,0.7-0.1c0.4,0,0.6,0.1,0.8,0.3c0.2,0.2,0.2,0.5,0.3,0.8h0c0.5-0.4,0.9-0.7,1.3-0.9
			c0.4-0.2,0.8-0.3,1.3-0.3c0.4,0,0.8,0.1,1,0.4c0.3,0.3,0.4,0.6,0.4,1c0,0.1,0,0.2,0,0.4c0,0.2-0.1,0.4-0.1,0.6l-0.6,2.2
			c0,0.1-0.1,0.3-0.1,0.5c0,0.2-0.1,0.3-0.1,0.4c0,0.3,0.1,0.4,0.2,0.5c0.1,0.1,0.3,0.1,0.6,0.1c0.1,0,0.2,0,0.4,0
			C131.4,129.1,131.6,129.1,131.7,129.1z"/>
		<path d="M145.1,119.9l-0.5,2.4l-0.5,0c0-0.5-0.1-0.9-0.3-1.2c-0.2-0.3-0.4-0.5-0.7-0.6c-0.1,0-0.3,0-0.5,0c-0.2,0-0.4,0-0.7,0
			l-1.6,0l-0.9,4l1.1,0c0.3,0,0.6,0,0.8-0.1c0.2-0.1,0.4-0.2,0.5-0.3c0.1-0.1,0.3-0.3,0.4-0.6c0.1-0.2,0.2-0.4,0.3-0.6l0.5,0
			l-0.9,3.9l-0.5,0c0-0.1,0-0.1,0-0.2c0-0.1,0-0.1,0-0.2c0-0.2,0-0.3,0-0.5c0-0.2-0.1-0.3-0.1-0.3c-0.1-0.2-0.2-0.3-0.4-0.4
			c-0.2-0.1-0.4-0.1-0.7-0.1l-1.1,0l-0.7,3c0,0.1,0,0.2-0.1,0.4c0,0.1,0,0.2,0,0.3c0,0.3,0.1,0.4,0.3,0.5c0.2,0.1,0.6,0.1,1.2,0.1
			c0.8,0,1.3,0,1.6-0.1c0.3-0.1,0.5-0.1,0.6-0.2c0.3-0.2,0.6-0.6,0.9-1c0.4-0.5,0.6-0.8,0.7-1l0.5,0l-0.8,2.9l-8.2,0.1l0.1-0.5
			c0.1,0,0.3,0,0.6-0.1c0.2,0,0.4-0.1,0.5-0.1c0.2-0.1,0.3-0.2,0.4-0.3c0.1-0.1,0.1-0.3,0.2-0.4l1.6-7.2c0,0,0-0.1,0-0.1
			c0,0,0-0.1,0-0.1c0-0.1,0-0.2-0.1-0.2c0-0.1-0.1-0.1-0.2-0.2c-0.1-0.1-0.3-0.1-0.5-0.2c-0.2,0-0.4-0.1-0.5-0.1l0.1-0.5
			L145.1,119.9z"/>
	</g>
	<g>
		<path d="M152.2,123.5c0,0.3-0.1,0.5-0.3,0.6c-0.2,0.1-0.4,0.2-0.6,0.2c-0.1,0-0.3,0-0.5-0.1c-0.2,0-0.3-0.1-0.4-0.1
			c-0.2,0.2-0.4,0.5-0.7,0.8c-0.3,0.4-0.5,0.8-0.8,1.2c0.1,0.4,0.2,0.8,0.3,1.1c0.1,0.3,0.2,0.6,0.3,0.9c0.1,0.3,0.2,0.5,0.4,0.7
			c0.2,0.2,0.4,0.2,0.7,0.2c0.1,0,0.3,0,0.5-0.1c0.2,0,0.3-0.1,0.4-0.1l-0.1,0.5c-0.4,0.2-0.8,0.3-1,0.4c-0.2,0.1-0.5,0.1-0.7,0.1
			c-0.3,0-0.6-0.1-0.8-0.2c-0.2-0.1-0.4-0.5-0.5-0.9c-0.1-0.3-0.2-0.6-0.2-0.8c-0.1-0.2-0.1-0.5-0.2-0.7c-0.2,0.3-0.4,0.6-0.5,0.8
			c-0.1,0.2-0.4,0.5-0.7,0.9c-0.3,0.3-0.5,0.6-0.8,0.7c-0.2,0.1-0.5,0.2-0.7,0.2c-0.2,0-0.4-0.1-0.5-0.2c-0.1-0.1-0.2-0.3-0.2-0.5
			c0-0.2,0.1-0.4,0.2-0.6c0.2-0.2,0.4-0.2,0.7-0.2c0.1,0,0.3,0,0.4,0.1c0.1,0.1,0.3,0.1,0.4,0.1c0.2-0.2,0.4-0.4,0.7-0.8
			c0.3-0.4,0.6-0.8,0.8-1.2c-0.1-0.3-0.2-0.7-0.3-1.1c-0.1-0.4-0.2-0.7-0.3-1c-0.1-0.4-0.3-0.6-0.4-0.7s-0.4-0.2-0.6-0.2
			c-0.1,0-0.3,0-0.4,0.1c-0.1,0-0.3,0.1-0.4,0.1l0.1-0.5c0.4-0.2,0.7-0.3,1-0.4c0.3-0.1,0.5-0.1,0.6-0.1c0.3,0,0.6,0.1,0.8,0.2
			c0.2,0.2,0.4,0.5,0.5,0.9c0.1,0.5,0.2,0.8,0.3,0.9c0,0.1,0.1,0.3,0.2,0.7c0.2-0.3,0.4-0.6,0.5-0.9c0.1-0.2,0.4-0.6,0.7-0.9
			c0.3-0.4,0.6-0.6,0.8-0.8c0.2-0.1,0.5-0.2,0.7-0.2c0.2,0,0.4,0.1,0.5,0.2C152.1,123.1,152.2,123.3,152.2,123.5z"/>
	</g>
	<g>
		<path d="M155,129.9c-0.8,0-1.5-0.2-1.9-0.7c-0.5-0.5-0.7-1.1-0.7-2c0-0.6,0.1-1.1,0.3-1.7c0.2-0.5,0.4-1,0.7-1.4
			c0.3-0.4,0.7-0.8,1.2-1c0.5-0.3,1-0.4,1.6-0.4c0.7,0,1.2,0.1,1.5,0.4c0.3,0.3,0.5,0.6,0.5,1.1c0,0.3-0.1,0.6-0.2,0.8
			c-0.1,0.2-0.4,0.4-0.7,0.4c-0.2,0-0.4-0.1-0.6-0.2s-0.2-0.3-0.2-0.4c0-0.1,0-0.4,0.1-0.6c0.1-0.3,0.2-0.5,0.2-0.6
			c-0.1-0.1-0.2-0.2-0.3-0.3c-0.2-0.1-0.4-0.1-0.5-0.1c-0.6,0-1.2,0.4-1.6,1.1c-0.4,0.7-0.7,1.6-0.7,2.7c0,0.7,0.2,1.2,0.5,1.6
			c0.3,0.4,0.7,0.6,1.2,0.6c0.4,0,0.8-0.1,1.2-0.4c0.3-0.2,0.7-0.6,1-1l0.4,0.3c-0.3,0.5-0.7,0.9-1.3,1.3
			C156.2,129.7,155.6,129.9,155,129.9z"/>
	</g>
	<g>
		<path d="M164.7,124.1c0,0.5-0.1,0.9-0.5,1.3c-0.3,0.4-0.8,0.6-1.3,0.9c-0.4,0.2-0.9,0.3-1.3,0.4c-0.4,0.1-0.9,0.2-1.5,0.3
			c0,0.7,0.1,1.3,0.4,1.7c0.3,0.4,0.7,0.6,1.2,0.6c0.5,0,0.9-0.1,1.2-0.4c0.4-0.2,0.7-0.6,1-1l0.4,0.3c-0.4,0.6-0.8,1-1.4,1.4
			c-0.6,0.3-1.1,0.5-1.7,0.5c-0.8,0-1.4-0.2-1.9-0.7c-0.4-0.5-0.7-1.1-0.7-1.9c0-0.6,0.1-1.1,0.3-1.7s0.4-1,0.8-1.5
			c0.3-0.4,0.8-0.8,1.3-1c0.5-0.3,1-0.4,1.6-0.4c0.7,0,1.2,0.1,1.5,0.4C164.6,123.3,164.7,123.6,164.7,124.1z M163.4,123.9
			c0-0.2,0-0.3-0.1-0.4c-0.1-0.1-0.1-0.2-0.2-0.2c-0.1-0.1-0.2-0.1-0.3-0.1c-0.1,0-0.2,0-0.3,0c-0.6,0-1.1,0.3-1.5,0.9
			c-0.5,0.6-0.8,1.4-0.9,2.3c0.3,0,0.7-0.1,1.1-0.2c0.4-0.1,0.7-0.2,1-0.3c0.4-0.2,0.7-0.5,0.9-0.8
			C163.4,124.7,163.5,124.3,163.4,123.9z"/>
		<path d="M169.1,118.9l-1.9,8.4c0,0.2-0.1,0.4-0.1,0.5c0,0.2-0.1,0.3-0.1,0.4c0,0.3,0.1,0.4,0.2,0.5c0.1,0.1,0.3,0.1,0.6,0.1
			c0.1,0,0.2,0,0.4,0s0.3-0.1,0.4-0.1l-0.1,0.4c-0.4,0.2-0.7,0.3-1,0.4c-0.2,0.1-0.5,0.1-0.8,0.1c-0.4,0-0.7-0.1-0.8-0.3
			c-0.2-0.2-0.3-0.4-0.3-0.7c0-0.1,0-0.2,0-0.3c0-0.1,0-0.3,0.1-0.4l1.6-7.3c0-0.1,0.1-0.2,0.1-0.3c0-0.1,0-0.1,0-0.2
			c0-0.2,0-0.3-0.1-0.4c-0.1-0.1-0.1-0.2-0.2-0.2c-0.1,0-0.2-0.1-0.4-0.1c-0.1,0-0.3,0-0.5,0l0.1-0.4l2.6-0.2L169.1,118.9z"/>
		<path d="M173.2,118.9l-1.9,8.4c0,0.2-0.1,0.4-0.1,0.5c0,0.2-0.1,0.3-0.1,0.4c0,0.3,0.1,0.4,0.2,0.5c0.1,0.1,0.3,0.1,0.6,0.1
			c0.1,0,0.2,0,0.4,0c0.2,0,0.3-0.1,0.4-0.1l-0.1,0.4c-0.4,0.2-0.7,0.3-1,0.4c-0.2,0.1-0.5,0.1-0.8,0.1c-0.4,0-0.7-0.1-0.8-0.3
			c-0.2-0.2-0.3-0.4-0.3-0.7c0-0.1,0-0.2,0-0.3c0-0.1,0-0.3,0.1-0.4l1.6-7.3c0-0.1,0.1-0.2,0.1-0.3c0-0.1,0-0.1,0-0.2
			c0-0.2,0-0.3-0.1-0.4c-0.1-0.1-0.1-0.2-0.2-0.2c-0.1,0-0.2-0.1-0.4-0.1c-0.1,0-0.3,0-0.5,0l0.1-0.4l2.6-0.2L173.2,118.9z"/>
		<path d="M179.5,123.9c0,0.5-0.1,0.9-0.5,1.3c-0.3,0.4-0.8,0.6-1.3,0.9c-0.4,0.2-0.9,0.3-1.3,0.4c-0.4,0.1-0.9,0.2-1.5,0.3
			c0,0.7,0.1,1.3,0.4,1.7c0.3,0.4,0.7,0.6,1.2,0.6c0.5,0,0.9-0.1,1.2-0.4c0.4-0.2,0.7-0.6,1-1l0.4,0.3c-0.4,0.6-0.8,1-1.4,1.4
			c-0.6,0.3-1.1,0.5-1.7,0.5c-0.8,0-1.4-0.2-1.9-0.7c-0.4-0.5-0.7-1.1-0.7-1.9c0-0.6,0.1-1.1,0.3-1.7c0.2-0.5,0.4-1,0.8-1.5
			c0.3-0.4,0.8-0.8,1.3-1c0.5-0.3,1-0.4,1.6-0.4c0.7,0,1.2,0.1,1.5,0.4C179.4,123.2,179.5,123.5,179.5,123.9z M178.3,123.8
			c0-0.2,0-0.3-0.1-0.4c-0.1-0.1-0.1-0.2-0.2-0.2c-0.1-0.1-0.2-0.1-0.3-0.1c-0.1,0-0.2,0-0.3,0c-0.6,0-1.1,0.3-1.5,0.9
			c-0.5,0.6-0.8,1.4-0.9,2.3c0.3,0,0.7-0.1,1.1-0.2c0.4-0.1,0.7-0.2,1-0.3c0.4-0.2,0.7-0.5,0.9-0.8
			C178.2,124.6,178.3,124.2,178.3,123.8z"/>
		<path d="M187.8,128.6l-0.1,0.4c-0.4,0.2-0.7,0.3-1,0.4c-0.2,0.1-0.5,0.1-0.7,0.1c-0.4,0-0.7-0.1-0.8-0.3c-0.2-0.2-0.3-0.4-0.3-0.7
			c0-0.1,0-0.2,0-0.3c0-0.1,0-0.3,0.1-0.4l0.7-2.6c0.1-0.2,0.1-0.4,0.1-0.5c0-0.2,0-0.3,0-0.4c0-0.3-0.1-0.6-0.2-0.7
			c-0.1-0.2-0.4-0.3-0.7-0.3c-0.3,0-0.6,0.1-0.9,0.3c-0.3,0.2-0.7,0.5-1,0.8l-1.1,5.1l-1.3,0l1-4.5c0-0.1,0.1-0.3,0.1-0.5
			c0-0.2,0.1-0.4,0.1-0.5c0-0.3,0-0.4-0.1-0.5s-0.3-0.1-0.5-0.1c-0.1,0-0.2,0-0.4,0.1c-0.2,0-0.3,0.1-0.4,0.1l0.1-0.4
			c0.4-0.2,0.7-0.3,1-0.4c0.3-0.1,0.5-0.1,0.7-0.1c0.4,0,0.6,0.1,0.8,0.3c0.2,0.2,0.2,0.5,0.3,0.8h0c0.5-0.4,0.9-0.7,1.3-0.9
			s0.8-0.3,1.3-0.3c0.4,0,0.8,0.1,1,0.4c0.3,0.3,0.4,0.6,0.4,1c0,0.1,0,0.2,0,0.4c0,0.2-0.1,0.4-0.1,0.6l-0.6,2.2
			c0,0.1-0.1,0.3-0.1,0.5c0,0.2-0.1,0.3-0.1,0.4c0,0.3,0.1,0.4,0.2,0.5c0.1,0.1,0.3,0.1,0.6,0.1c0.1,0,0.2,0,0.4,0
			C187.6,128.7,187.7,128.7,187.8,128.6z"/>
		<path d="M191.3,129.6c-0.8,0-1.4-0.2-1.9-0.7c-0.5-0.5-0.7-1.1-0.7-2c0-0.6,0.1-1.1,0.3-1.7c0.2-0.5,0.4-1,0.7-1.4
			c0.3-0.4,0.7-0.8,1.2-1c0.5-0.3,1-0.4,1.6-0.4c0.7,0,1.2,0.1,1.5,0.4c0.3,0.3,0.5,0.6,0.5,1.1c0,0.3-0.1,0.6-0.2,0.8
			c-0.1,0.2-0.4,0.4-0.7,0.4c-0.2,0-0.4-0.1-0.6-0.2c-0.1-0.1-0.2-0.3-0.2-0.4c0-0.1,0-0.4,0.1-0.6c0.1-0.3,0.2-0.5,0.2-0.6
			c-0.1-0.1-0.2-0.2-0.3-0.3c-0.2-0.1-0.4-0.1-0.5-0.1c-0.6,0-1.2,0.4-1.6,1.1c-0.5,0.7-0.7,1.6-0.7,2.7c0,0.7,0.2,1.2,0.5,1.6
			c0.3,0.4,0.7,0.6,1.2,0.6c0.4,0,0.8-0.1,1.2-0.4c0.3-0.2,0.7-0.6,1-1l0.4,0.3c-0.3,0.5-0.7,0.9-1.3,1.3
			C192.5,129.4,191.9,129.6,191.3,129.6z"/>
	</g>
	<g>
		<path d="M201.1,123.8c0,0.5-0.1,0.9-0.5,1.3c-0.3,0.4-0.8,0.6-1.3,0.9c-0.4,0.2-0.9,0.3-1.3,0.4c-0.4,0.1-0.9,0.2-1.5,0.3
			c0,0.7,0.1,1.3,0.4,1.7c0.3,0.4,0.7,0.6,1.2,0.6c0.5,0,0.9-0.1,1.2-0.4c0.4-0.2,0.7-0.6,1-1l0.4,0.3c-0.4,0.6-0.8,1-1.4,1.4
			s-1.1,0.5-1.7,0.5c-0.8,0-1.4-0.2-1.9-0.7c-0.4-0.5-0.7-1.1-0.7-1.9c0-0.6,0.1-1.1,0.3-1.7c0.2-0.5,0.4-1,0.8-1.5
			c0.3-0.4,0.8-0.8,1.3-1.1c0.5-0.3,1-0.4,1.6-0.4c0.7,0,1.2,0.1,1.5,0.4C200.9,123,201.1,123.4,201.1,123.8z M199.8,123.6
			c0-0.2,0-0.3-0.1-0.4c-0.1-0.1-0.1-0.2-0.2-0.2c-0.1-0.1-0.2-0.1-0.3-0.1c-0.1,0-0.2,0-0.3,0c-0.6,0-1.1,0.3-1.5,0.9
			c-0.5,0.6-0.8,1.4-0.9,2.3c0.3,0,0.7-0.1,1.1-0.2c0.4-0.1,0.7-0.2,1-0.3c0.4-0.2,0.7-0.5,0.8-0.8
			C199.7,124.4,199.8,124.1,199.8,123.6z"/>
	</g>
</g>
</svg>
